<svg width="24" height="24" viewBox="0 0 24 24" fill="none" xmlns="http://www.w3.org/2000/svg">
<g id="ph:heart-straight-thin">
<path id="Vector" d="M20.6419 5.60526C19.6921 4.65865 18.4058 4.12712 17.0649 4.12712C15.7239 4.12712 14.4376 4.65865 13.4878 5.60526L12 6.98526L10.5122 5.60057C9.56228 4.65164 8.2743 4.11893 6.93159 4.11963C5.58889 4.12033 4.30146 4.65439 3.35253 5.60432C2.40359 6.55426 1.87088 7.84224 1.87158 9.18494C1.87229 10.5276 2.40635 11.8151 3.35628 12.764L11.7328 21.2634C11.7677 21.2988 11.8093 21.327 11.8552 21.3462C11.9011 21.3654 11.9503 21.3753 12 21.3753C12.0498 21.3753 12.099 21.3654 12.1449 21.3462C12.1907 21.327 12.2323 21.2988 12.2672 21.2634L20.6419 12.7659C21.1122 12.2958 21.4852 11.7376 21.7397 11.1233C21.9943 10.509 22.1253 9.85053 22.1253 9.18557C22.1253 8.52062 21.9943 7.86218 21.7397 7.24786C21.4852 6.63354 21.1122 6.07538 20.6419 5.60526ZM20.1103 12.2371L12 20.4656L3.88784 12.2353C3.07901 11.4264 2.62462 10.3294 2.62462 9.18557C2.62462 8.04172 3.07901 6.94471 3.88784 6.13589C4.69667 5.32706 5.79367 4.87266 6.93753 4.87266C8.08138 4.87266 9.17839 5.32706 9.98721 6.13589L9.99659 6.14526L11.7441 7.77276C11.8135 7.83761 11.905 7.87368 12 7.87368C12.095 7.87368 12.1865 7.83761 12.256 7.77276L14.0035 6.14526L14.0128 6.13589C14.4104 5.72212 14.8865 5.39184 15.4133 5.16442C15.9401 4.93699 16.507 4.81698 17.0808 4.81142C17.6546 4.80586 18.2237 4.91486 18.7548 5.13204C19.2859 5.34922 19.7684 5.6702 20.1739 6.07619C20.5794 6.48218 20.8997 6.96501 21.1163 7.4964C21.3328 8.02778 21.4411 8.59703 21.4348 9.1708C21.4286 9.74457 21.3079 10.3113 21.0798 10.8378C20.8517 11.3644 20.5208 11.8401 20.1066 12.2371H20.1103Z" fill="#1E1E1E"/>
</g>
</svg>
