<svg width="56" height="56" viewBox="0 0 56 56" fill="none" xmlns="http://www.w3.org/2000/svg">
<g id="icon">
<path id="Vector 3109" d="M27.3462 5.99247L11.5225 44.0251C11.3691 44.3939 11.6401 44.8002 12.0396 44.8002L43.9551 44.8002C44.356 44.8002 44.627 44.3912 44.4708 44.022L28.379 5.98937C28.1856 5.53217 27.5369 5.53411 27.3462 5.99247Z" fill="#E8E8E8"/>
<path id="Subtract" fill-rule="evenodd" clip-rule="evenodd" d="M22.6348 17.3866L19.3406 25.4232L34.1778 19.9417L31.7145 14.0322L22.6348 17.3866ZM29.3466 8.35164L28.351 5.96319C28.1589 5.50233 27.5053 5.50427 27.3159 5.96626L25.8013 9.6614L29.3466 8.35164ZM36.5457 25.6223L16.1741 33.1483L12.8799 41.1849L39.0091 31.5318L36.5457 25.6223ZM41.377 37.2123L20.9665 44.7527L43.68 44.7527C44.0796 44.7527 44.3506 44.3462 44.1969 43.9773L41.377 37.2123Z" fill="#EC8007"/>
<path id="Rectangle 1187" d="M49.2798 50.4C49.2798 50.7092 49.0291 50.96 48.7198 50.96L7.83979 50.96C7.53051 50.96 7.27979 50.7092 7.27979 50.4L7.27979 44.8C7.27979 44.4907 7.53051 44.24 7.83979 44.24L48.7198 44.24C49.0291 44.24 49.2798 44.4907 49.2798 44.8L49.2798 50.4Z" fill="#EC8007"/>
</g>
</svg>
