<svg width="20" height="16" viewBox="0 0 20 16" fill="none" xmlns="http://www.w3.org/2000/svg">
<path id="Vector" d="M20 4.83713C20.0015 5.47175 19.8682 6.10036 19.6076 6.68659C19.3471 7.27283 18.9646 7.80505 18.4823 8.25247L10.5097 15.8012C10.4432 15.8642 10.364 15.9142 10.2766 15.9483C10.1893 15.9824 10.0955 16 10.0008 16C9.90609 16 9.81232 15.9824 9.72496 15.9483C9.63759 15.9142 9.55837 15.8642 9.49192 15.8012L1.51935 8.25247C0.547365 7.34666 0.000838101 6.11769 9.63117e-07 4.83591C-0.000836174 3.55413 0.544085 2.32453 1.51489 1.41763C2.48569 0.510717 3.80285 0.000782006 5.17661 8.98676e-07C6.55037 -0.000780208 7.8682 0.507657 8.84018 1.41346L10.0008 2.42557L11.1695 1.41013C11.8948 0.736714 12.8177 0.278906 13.8217 0.0944993C14.8257 -0.0899069 15.8657 0.00735627 16.8104 0.37401C17.7552 0.740663 18.5624 1.36027 19.1301 2.15461C19.6977 2.94894 20.0004 3.8824 20 4.83713Z" fill="#FF4A4A"/>
</svg>
