<svg xmlns="http://www.w3.org/2000/svg" width="44" height="36" viewBox="0 0 44 36" fill="none">
  <path d="M0 34.1109L0 2.22206C0 1.36295 0.696446 0.666504 1.55556 0.666504L10.8342 0.666504C11.3543 0.666504 11.84 0.926439 12.1285 1.35919L15.8715 6.97382C16.16 7.40657 16.6457 7.6665 17.1658 7.6665L35.7778 7.6665C36.6369 7.6665 37.3333 8.36295 37.3333 9.22206L37.3333 34.1109C37.3333 34.9701 36.6369 35.6665 35.7778 35.6665L1.55556 35.6665C0.696446 35.6665 0 34.9701 0 34.1109Z" fill="#FFC47E"/>
  <path d="M5.92068 12.723L0.501325 33.723C0.247232 34.7076 0.990666 35.6673 2.00753 35.6673L36.1647 35.6673C36.8568 35.6673 37.4657 35.21 37.6586 34.5454L43.7554 13.5454C44.0443 12.5503 43.2978 11.5562 42.2615 11.5562L7.42689 11.5562C6.71749 11.5562 6.09794 12.0361 5.92068 12.723Z" fill="#EC8007"/>
</svg>