<svg width="120" height="121" viewBox="0 0 120 121" fill="none" xmlns="http://www.w3.org/2000/svg">
<g clip-path="url(#clip0_11_1772)">
<path d="M88.75 0.666687C97.7245 0.666687 105 7.94204 105 16.9167V74.4167C105 83.3912 97.7245 90.6667 88.75 90.6667H31.25C22.2753 90.6667 15 83.3912 15 74.4167V16.9167C15 7.94204 22.2753 0.666687 31.25 0.666687H88.75ZM91.6525 82.6737L62.6235 54.2407C61.298 52.9432 59.2505 52.8247 57.794 53.8867L57.376 54.2407L28.3422 82.6722C29.252 82.9922 30.2306 83.1667 31.25 83.1667H88.75C89.7675 83.1667 90.7445 82.9932 91.6525 82.6737ZM88.75 8.16669H31.25C26.4175 8.16669 22.5 12.0842 22.5 16.9167V74.4167C22.5 75.4587 22.6822 76.4582 23.0163 77.3852L52.129 48.8817C56.2945 44.8032 62.8375 44.6092 67.229 48.2997L67.871 48.8822L96.982 77.3902C97.317 76.4617 97.5 75.4607 97.5 74.4167V16.9167C97.5 12.0842 93.5825 8.16669 88.75 8.16669ZM76.2605 18.1667C82.4795 18.1667 87.521 23.2082 87.521 29.4273C87.521 35.6463 82.4795 40.6877 76.2605 40.6877C70.0415 40.6877 65 35.6463 65 29.4273C65 23.2082 70.0415 18.1667 76.2605 18.1667ZM76.2605 25.6667C74.1835 25.6667 72.5 27.3503 72.5 29.4273C72.5 31.5042 74.1835 33.1878 76.2605 33.1878C78.3375 33.1878 80.021 31.5042 80.021 29.4273C80.021 27.3503 78.3375 25.6667 76.2605 25.6667Z" fill="#A8A8A8"/>
</g>
<defs>
<clipPath id="clip0_11_1772">
<rect width="120" height="120" fill="white" transform="translate(0 0.666687)"/>
</clipPath>
</defs>
</svg>
