<svg xmlns="http://www.w3.org/2000/svg" width="71" height="67" viewBox="0 0 71 67" fill="none">
  <path d="M52.2992 0C57.5877 0 61.8751 4.05341 61.8751 9.05357V41.0893C61.8751 46.0894 57.5877 50.1429 52.2992 50.1429H18.4152C13.1266 50.1429 8.83936 46.0894 8.83936 41.0893V9.05357C8.83936 4.05341 13.1266 0 18.4152 0H52.2992ZM54.0096 45.6896L36.9032 29.8484C36.1221 29.1255 34.9155 29.0595 34.0572 29.6511L33.8109 29.8484L16.7018 45.6888C17.2379 45.8671 17.8146 45.9643 18.4152 45.9643H52.2992C52.8988 45.9643 53.4745 45.8676 54.0096 45.6896ZM52.2992 4.17857H18.4152C15.5675 4.17857 13.259 6.36118 13.259 9.05357V41.0893C13.259 41.6698 13.3663 42.2267 13.5632 42.7432L30.7189 26.8626C33.1736 24.5903 37.0293 24.4822 39.6172 26.5384L39.9955 26.8629L57.1502 42.7459C57.3476 42.2286 57.4554 41.6709 57.4554 41.0893V9.05357C57.4554 6.36118 55.1469 4.17857 52.2992 4.17857ZM44.9393 9.75C48.6041 9.75 51.5749 12.5589 51.5749 16.0238C51.5749 19.4886 48.6041 22.2974 44.9393 22.2974C41.2745 22.2974 38.3036 19.4886 38.3036 16.0238C38.3036 12.5589 41.2745 9.75 44.9393 9.75ZM44.9393 13.9286C43.7153 13.9286 42.7233 14.8666 42.7233 16.0238C42.7233 17.1809 43.7153 18.1189 44.9393 18.1189C46.1632 18.1189 47.1553 17.1809 47.1553 16.0238C47.1553 14.8666 46.1632 13.9286 44.9393 13.9286Z" fill="#A8A8A8"/>
</svg>